# xmcd CD database file
#
# Track frame offsets:
#	150
#	18980
#	35600
#	56225
#	72710
#	91247
#	113052
#	130232
#	149787
#	165965
#
# Disc length: 2406 seconds
#
# Revision: 0
# Processed by: cddbd v1.5.1PL0 Copyright (c) Steve Scherf et al.
# Submitted via: CDex 1.51
#
DISCID=9009640a
DTITLE=GAME - 熱血高校ドッジボール部サッカー編
DYEAR=1900
DGENRE=Game
TTITLE0=熱血BAD BOY
TTITLE1=ON THE STREET
TTITLE2=COPULATION
TTITLE3=BLUE ANGEL
TTITLE4=EGO GAMES
TTITLE5=JOY POP
TTITLE6=TURN OVER
TTITLE7=FLASH
TTITLE8=UP TIGHT
TTITLE9=LAUGH IN
EXTD=
EXTT0=
EXTT1=
EXTT2=
EXTT3=
EXTT4=
EXTT5=
EXTT6=
EXTT7=
EXTT8=
EXTT9=
PLAYORDER=
